<?xml version="1.0" encoding="utf-8"?>
<svg xmlns="http://www.w3.org/2000/svg" width="40mm" height="40mm" version="1.1" style="shape-rendering:geometricPrecision; text-rendering:geometricPrecision; image-rendering:optimizeQuality; fill-rule:evenodd; clip-rule:evenodd" viewBox="0 0 4000 4000">
  <defs>
    <style type="text/css">
   
    .fil0 {fill:#FEFEFE;fill-rule:nonzero}
   
  </style>
  </defs>
  <g id="Слой_x0020_1">
    <path class="fil0" d="M 1138.9 354.59 L 1466.44 354.59 C 1472.74 354.59 1478.94 356.53 1484.13 360.11 L 3553.73 1781.73 C 3562.22 1787.57 3567.28 1797.19 3567.28 1807.52 L 3567.28 2034.38 C 3567.28 2059.59 3539.04 2074.47 3518.25 2060.2 L 1121.18 411.79 C 1095.81 394.33 1108.14 354.59 1138.9 354.59 Z M 1276.06 814.8 L 577.28 359.69 C 572.21 356.33 566.3 354.59 560.23 354.59 L 397.48 354.59 C 380.18 354.59 366.2 368.63 366.2 385.97 L 366.2 501.95 C 366.2 512.5 371.53 522.48 380.47 528.22 L 1134.97 1018.51 C 1149.23 1027.74 1168.25 1023.97 1177.87 1009.99 L 1284.29 854.99 C 1292.52 841.33 1291.07 825.9 1276.06 814.8 Z M 3553.95 2385.93 L 3163.28 2112.17 C 3149.01 2102.13 3129.38 2105.75 3119.54 2120.05 L 3014.92 2272.44 C 3005.14 2286.71 3008.72 2306.14 3022.89 2315.95 L 3518.22 2657.63 C 3538.98 2671.93 3567.28 2657.05 3567.28 2631.77 L 3567.28 2411.6 C 3567.28 2401.4 3562.35 2391.84 3553.95 2385.93 Z M 1596.69 2537.71 L 1441.65 2431.06 C 1427.39 2421.28 1407.89 2424.89 1398.08 2439.16 L 664.91 3506.71 C 650.61 3527.43 665.49 3555.77 690.7 3555.77 L 915.21 3555.77 C 925.51 3555.77 935.19 3550.7 941 3542.18 L 1604.18 2576.54 C 1611.77 2561.86 1609.38 2548.88 1596.69 2537.71 Z M 1609.8 1644.8 L 415.2 823.22 C 394.44 808.89 366.2 823.77 366.2 849.05 L 366.2 1073.65 C 366.2 1083.98 371.27 1093.66 379.76 1099.47 L 1262.34 1706.52 C 1276.61 1716.3 1280.26 1735.83 1270.48 1750.09 L 371.66 3058.35 C 368.1 3063.54 366.2 3069.74 366.2 3076.07 L 366.2 3311.03 L 366.2 3413.19 C 366.2 3444.02 405.97 3456.32 423.3 3430.85 L 1617.19 1682.89 C 1625.23 1669.01 1621.51 1654.22 1609.8 1644.8 Z M 2332.02 2442.03 L 3518.25 3257.64 C 3539.04 3271.87 3567.28 3256.99 3567.28 3231.82 L 3567.28 3006.7 C 3567.28 2996.37 3562.22 2986.72 3553.73 2980.91 L 2270.52 2099.13 C 2256.29 2089.32 2236.76 2093 2226.98 2107.2 L 1265.83 3506.71 C 1251.56 3527.43 1266.44 3555.77 1291.59 3555.77 L 1516.12 3555.77 C 1526.42 3555.77 1536.07 3550.7 1541.88 3542.18 L 2292.76 2448.85 C 2303.51 2435.68 2317.3 2433.13 2332.02 2442.03 Z"/>
  </g>
</svg>